<?xml version="1.0" encoding="UTF-8"?>
<svg id="Layer_2" data-name="Layer 2" xmlns="http://www.w3.org/2000/svg" xmlns:xlink="http://www.w3.org/1999/xlink" viewBox="0 0 995.16 1024">
  <defs>
    <style>
      .cls-1 {
        fill: none;
      }

      .cls-2 {
        fill: currentColor;
      }

      .cls-3 {
        clip-path: url(#clippath);
      }
    </style>
    <clipPath id="clippath">
      <path class="cls-1" d="M406.79,543.97c-92.33-19.64-121.09-9.13-214.09-31.04-65.33-15.39-93.12-30.48-112.13-43.35-24.77-16.78-72.27-48.97-70.92-90.45.74-22.48,15.67-42.96,42.28-79.48,9.53-13.07,18.15-23.26,24.08-29.97.43-10.81,2.61-30.11,13.38-51.11,14.52-28.32,35.89-42.62,41.21-46.03,24.9-15.94,49.23-17.96,59.94-18.2,33.97-29.33,64.46-50.52,86.7-64.76,17.75-11.37,67.57-42.22,137.82-65.83,69.74-23.44,85.27-14.77,91.79-8.56,10.97,10.44,10.11,29.38,9.63,43.35-.92,26.82-11.97,46.66-18.2,56.2,15.49-2.52,36.97-5.11,62.62-5.35,74.79-.7,133.39,19.1,164.85,32.11,69.49,28.76,114.01,68.94,132.2,86.7,37.78,36.9,60.41,73.27,72.25,94.73,36.37,65.88,44.86,124.86,50.31,165.38,7.47,55.55,4.52,97.6,3.75,107.58-1.63,21.01-7.4,77.28-34.25,144.51-10.78,27-30.07,74.2-71.72,124.7-59.9,72.65-127.35,105.18-142.9,112.4-26.04,12.08-78.43,35.7-149.86,35.59-27.78-.04-73.29-.62-123.9-25.42-20.96-10.27-79-38.72-107.58-104.63-6.9-15.9-23.4-55.49-12.58-105.17,4.12-18.93,17.34-62.86,59.94-93.66,9.97-7.21,44.5-31.39,93.13-28.37,11.35.71,65.34,4.07,96.87,49.24,3.91,5.6,28.02,41.36,17.66,85.63-2,8.54-8.65,36.95-35.32,55.13-5.82,3.96-26.7,17.72-54.06,13.38-5.19-.82-37.37-5.94-47.63-32.11-6.5-16.57-4.81-43.12,10.7-49.24,11.38-4.48,28.13,2.83,39.07,18.73,3.08-1.53,9.41-5.24,13.11-12.58,6.85-13.57-1.14-27.96-2.41-30.24-9.59-17.28-32.16-23.22-48.7-21.94-29.42,2.26-45.81,27.8-49.78,33.99-15.08,23.5-12.59,47.7-11.77,54.59,4.05,34.28,27.63,54.79,34.79,61.01,28.02,24.37,60.34,26.89,82.69,28.63,59.2,4.62,103.88-19.02,118.55-27.03,17.38-9.49,56.15-31.32,83.23-78.68,26.72-46.73,26.72-91.52,25.69-109.99-10.83-4.78-29-12.88-51.32-23.29-106.39-49.61-136.38-71.99-200.77-96.2-47.16-17.73-84.67-25.87-108.38-30.91Z"/>
    </clipPath>
  </defs>
  <g id="Layer_1-2" data-name="Layer 1">
    <g>
      <polygon class="cls-2" points="929.54 306.51 932.1 292.96 922.42 292.96 924.87 279.96 912.68 279.96 916.13 261.68 900.13 261.68 901.14 244.87 885.94 246.8 887.63 218.78 867.2 221.38 868.57 198.59 843.23 201.81 841.85 172.44 814.81 178.87 809.04 144.97 783.43 154.47 774.24 121.63 747.7 134.76 739.98 107.21 714.46 119.84 704.25 97.7 682.8 112.97 671.94 89.41 649.14 105.63 635.6 84.77 616.77 102.75 602.48 80.75 583.04 99.32 567.53 80.6 551.37 100.09 535.21 80.6 506.85 114.81 563.58 114.81 563.58 114.81 595.89 114.81 595.54 114.39 603.61 115.33 603.46 115.47 659.81 122.04 659.45 121.48 690.55 129.76 690.39 129.42 722.86 138.06 722.27 136.77 751.97 150 751.7 149.04 772.76 158.42 768.59 159.97 805.26 181.14 804.19 181.4 842.1 209.93 866.51 232.78 866.71 229.5 885.29 246.88 879.46 247.62 894.49 261.68 894.27 261.68 909.43 279.96 907 279.96 917.78 292.96 914.22 292.96 924.78 305.7 924.71 305.69 934.08 321.91 939.18 308.15 929.54 306.51"/>
      <polygon points="918.62 309.59 898.85 285.74 902.4 285.74 891.62 272.74 894.05 272.74 888.24 265.73 863.3 242.39 865.87 242.06 837.45 215.47 795.19 183.67 751.66 158.54 752.59 158.19 726.16 146.41 703.38 140.35 703.54 140.7 661.52 129.51 597.4 122.04 491.47 122.04 535.21 69.28 551.37 88.76 567.53 69.28 583.66 88.74 603.79 69.5 618.09 91.51 636.91 73.53 651.1 95.37 674.85 78.46 685.71 102.03 707.16 86.76 717.91 110.07 744.59 96.87 752.3 124.42 778.84 111.29 788.27 144.97 814.7 135.17 820.64 170.06 848.65 163.4 850.08 193.66 876.31 190.32 874.94 213.11 895.36 210.52 893.68 238.53 908.88 236.6 907.8 254.46 924.84 254.46 921.39 272.74 933.59 272.74 931.14 285.74 940.82 285.74 938.01 300.62 948.99 302.49 935.51 338.84 918.62 309.59"/>
      <g>
        <path d="M678.25,691.47c-.15.26-.3.52-.45.78-2.25,4.03-4.4,8.34-6.71,12.66-.52.41-1.04.86-1.56,1.32-6.78,5.99-11.13,13.21-13.93,20.39-4.14,3.93-8.75,7.85-14.9,7.89-.57,0-1.16-.03-1.75-.1-6.99-.75-11.36-7.48-13.19-10.23-7.6-11.45-3.35-27.37-2.71-29.68-4.09,9.23-10.16,14.86-14.88,13.99-4.81-.88-7.01-8.3-8.8-14.33-3.88-13.07-2.19-24.1-1.23-33.98,1.02-10.53,3.73-21.32,8.75-30.96,2.45-4.71,5.45-9.14,9.09-13.12.8-.89,1.62-1.75,2.47-2.59,3.67,1.89,7.46,3.85,11.4,5.87,3.86,1.99,7.86,4.04,12.02,6.15.29.14.56.29.85.44.02.01.05.02.07.03h0c4.41,2.25,9,4.56,13.79,6.96h0c.11.06.22.12.33.17-.05.15-.12.31-.18.46,1.41,5.84,2.96,11.2,4.38,16.05.75,2.58,1.64,5.4,2.66,8.42.72,2.16,1.53,4.42,2.4,6.77,1.62,4.27,3.49,8.85,5.67,13.68h0c1.88,4.17,4.01,8.5,6.41,12.99Z"/>
        <path d="M414.95,553.16c-20.37,6.37-37.22,9.95-48.88,12.04-18.54,3.33-25.99,3.27-43.34,7.77-9.42,2.44-21.33,6.15-36.4,12.61-16.24,6.96-30.82,16.71-43.65,28.81-7.02,6.62-13.5,13.77-19.85,21.03-4.18,4.78-8.22,10.13-13.23,14.09-3.8,3.01-6.05,2.34-7.01,2.11-2.85-.67-8.65-7.83-8.14-16.81.49-8.57,6.87-20.76,7.5-21.96.14-.27.62-1.19.41-1.36-.57-.46-5.42,5.07-11.98,11.19-13.39,12.48-17.4,12.02-19,11.54-2.21-.66-3.55-2.29-4.11-3.07-5.57-7.83-.13-20.79,2.01-25.89,10.73-25.57,37.87-42.91,42.75-45.96,32.18-20.1,62.91-25.51,73.66-27.1,58.11-8.58,106.12,9.97,129.28,20.96Z"/>
        <g class="cls-3">
          <g>
            <circle cx="555.92" cy="273.89" r="34.52"/>
            <circle cx="659.08" cy="173.14" r="57"/>
            <ellipse cx="691.39" cy="322.06" rx="53.19" ry="58.61"/>
            <ellipse cx="831.09" cy="265.47" rx="60.21" ry="63.22" transform="translate(-40.8 233.92) rotate(-15.64)"/>
            <ellipse cx="802.22" cy="427.24" rx="41.29" ry="43.35" transform="translate(-85.49 232.13) rotate(-15.64)"/>
            <ellipse cx="931.52" cy="423.31" rx="51.69" ry="60.19" transform="translate(-79.64 266.84) rotate(-15.64)"/>
            <ellipse cx="927.5" cy="571.03" rx="31.02" ry="36.12" transform="translate(-119.62 271.23) rotate(-15.64)"/>
          </g>
        </g>
        <path d="M451.46,250.76c-.4,5.54-.78,12.87-2.69,29.15-4.17,35.54-7.84,66.96-18.06,97.94-7.74,23.47-16.94,51.36-40.94,77.07-39.92,42.77-93.59,50.38-117.62,53.79-28.46,4.04-56.15,1.41-84.33-3.09-30.16-4.82-60.59-10.73-88.45-23.72l-.42-.19c-15.2-7.13-29.43-16.31-42.33-27.06-7.43-6.19-14.96-14.03-15.05-23.7.01,1.36,5.88,2.21,6.75,2.41,15.24,3.47,30.16,8.35,45.33,12.14,15.66,3.91,31.44,7.36,47.35,10.04,14.28,2.41,28.67,4.22,43.13,5.2,31.28,2.13,62.41-.08,93.22-5.74,28.89-5.3,58.12-12.98,83.45-28.3,13.63-8.25,26.03-18.21,36.28-30.41,29.86-35.53,38.83-88.22,40.14-96.34,2.51-15.63,4.71-35.81,4.71-35.81.67-6.13,1.13-11.1,1.41-14.14,2.71.25,5.41.5,8.12.75Z"/>
        <path d="M641.87,625.52c-3.88,2.39-7.23,5.46-9.97,9.1.3-.27.58-.5.88-.73.01-.01,4.35-3.46,9.94-7.93-.29-.15-.56-.3-.85-.44ZM641.87,625.52c-3.88,2.39-7.23,5.46-9.97,9.1.3-.27.58-.5.88-.73.01-.01,4.35-3.46,9.94-7.93-.29-.15-.56-.3-.85-.44ZM641.87,625.52c-3.88,2.39-7.23,5.46-9.97,9.1.3-.27.58-.5.88-.73.01-.01,4.35-3.46,9.94-7.93-.29-.15-.56-.3-.85-.44ZM641.87,625.52c-3.88,2.39-7.23,5.46-9.97,9.1.3-.27.58-.5.88-.73.01-.01,4.35-3.46,9.94-7.93-.29-.15-.56-.3-.85-.44ZM641.87,625.52c-3.88,2.39-7.23,5.46-9.97,9.1.3-.27.58-.5.88-.73.01-.01,4.35-3.46,9.94-7.93-.29-.15-.56-.3-.85-.44ZM990.09,488.3c-5.03-37.37-13.44-99.95-51.42-168.76-19.66-35.6-44.54-68.22-73.96-96.96-38.04-37.17-84.81-67.85-135.24-88.71-53.21-22.03-111.53-33.39-168.63-32.85-14.96.14-30.01,1.08-44.94,2.82,6.23-13.95,9.72-28.79,10.24-43.7l.02-.73c.53-15.48,1.26-36.68-12.65-49.93-10.64-10.13-31.02-17.29-101.5,6.41-48.97,16.46-97.35,39.57-139.95,66.84-29.51,18.91-58.17,40.21-85.24,63.38-16.04.81-38.69,5.04-61.41,19.59-8.54,5.46-29.98,21.26-44.59,49.74-8.15,15.9-13.05,33.69-14.25,51.66-7.83,9.01-15.37,18.46-22.42,28.15C16.24,333.55.86,354.64.03,380.08c-1.53,46.8,48.34,80.58,75.14,98.75,19.67,13.33,48.76,29.06,115.31,44.75,49.18,11.59,81.41,14.3,112.59,16.93,26.98,2.26,54.82,4.61,94.56,12.69,2.34.47,4.72.97,7.14,1.48,1.55.33,3.18.68,4.88,1.04,5.49-5.12,11.55-10.41,18.18-15.73-4.31-.99-8.33-1.87-12.04-2.67-2.48-.53-4.81-1.03-7-1.5-44.79-9.52-74.94-12.06-104.1-14.52-31.88-2.68-62-5.22-109.79-16.48-63.52-14.96-90.71-29.61-108.94-41.94-23.72-16.08-67.87-45.98-66.68-82.17.64-19.51,14.77-38.91,40.44-74.11,7.38-10.12,15.28-19.96,23.52-29.27l2.27-2.57.14-3.42c.66-16.38,4.92-32.66,12.33-47.11,12.45-24.3,30.61-37.68,37.83-42.31,20.66-13.23,41.3-16.38,54.96-16.68l3.46-.07,2.61-2.26c27.13-23.42,55.93-44.93,85.61-63.94,41.27-26.43,88.2-48.84,135.68-64.81,44.48-14.95,73.63-18.76,82.08-10.71,7.64,7.28,7.08,23.47,6.67,35.3l-.02.74c-.62,17.81-6.37,35.53-16.64,51.25l-11.93,18.28,21.55-3.5c20.16-3.28,40.74-5.04,61.16-5.23,54.55-.51,110.23,10.34,161.07,31.38,48.18,19.94,92.85,49.22,129.15,84.7,28.08,27.42,51.81,58.53,70.55,92.5,36.24,65.63,44.04,123.63,49.2,162.01,6.8,50.57,4.85,90.66,3.69,105.55-2.53,32.6-10.41,83.64-33.59,141.68-10.02,25.09-28.67,71.77-70.21,122.16-54.31,65.87-115.66,98.71-139.52,109.78-22.4,10.39-74.79,34.71-145.31,34.71-.16,0-.32,0-.48-.01-24.47-.03-70.03-.11-119.68-24.43-20.73-10.17-75.81-37.16-102.97-99.82-6.12-14.12-22.38-51.63-12.01-99.29,4.57-20.97,17.94-60.25,56.17-87.91,29.83-21.56,58.49-26.79,79.29-26.79,2.67,0,5.21.09,7.6.23,39.15,2.43,70.96,18.47,89.57,45.13,6.05,8.67,25.09,39.89,16.18,77.93-1.93,8.24-7.8,33.3-31.37,49.36-18.58,12.66-40.74,15.72-60.81,8.4-10.27-3.74-17.85-9.06-22.55-15.8-5.83-8.37-8.15-19.28-6.38-29.93.69-4.17,3.13-13.87,10.85-14.02,6.6-.13,14.72,4.11,20.72,10.79,3.28,3.66,7.79,5.78,12.69,5.99,4.88.21,9.52-1.51,13.08-4.85,11.37-10.63,14.36-28.04,7.61-44.36-5.24-12.68-18.29-24-33.23-28.84-8.24-2.67-17.9-3.75-27.22-3.03-32.78,2.52-55.19,29.8-64.41,52.38-5.84,14.3-7.91,30.53-5.97,46.93,2.98,25.2,15.77,47.8,38.03,67.16,30.42,26.45,65.23,29.17,88.27,30.97,41.98,3.27,83.67-6.21,123.92-28.18,15.86-8.66,57.99-31.66,86.97-82.35,24.17-42.27,28.23-83.64,27.1-111.95-.04-1.14-.1-2.25-.16-3.35l-.33-5.9-5.4-2.38c-7.18-3.17-14.42-6.4-21.67-9.68.06,1.13.11,2.25.15,3.39.23,6.92.04,12.62-.51,17.58,2.92,1.32,5.84,2.61,8.76,3.91.09,3.5.09,7.18-.03,11.05-.78,24.45-6.38,55.84-24.63,87.77-26.28,45.95-64.93,67.06-79.48,75-36.92,20.15-74.99,28.86-113.19,25.88-21.73-1.69-51.5-4.02-77.12-26.3-6.91-6-27.94-24.29-31.54-54.87-1.56-13.18.05-26.1,4.67-37.39,7.72-18.89,25.57-38.73,48.05-40.46,6.77-.52,13.98.26,19.79,2.14,9.66,3.13,18.25,10.32,21.38,17.89,2.65,6.4,3.57,15.81-2.1,22.04-9.77-10.41-22.62-16.47-34.56-16.25-15.14.29-26.45,11.83-29.5,30.12-2.59,15.57.89,31.64,9.57,44.1,7.01,10.05,17.69,17.76,31.75,22.89,25.96,9.48,54.49,5.63,78.27-10.57,19.76-13.45,32.98-33.94,39.28-60.89,10.72-45.8-11.93-83.03-19.14-93.34-22.05-31.59-59.04-50.53-104.18-53.35-24.21-1.5-61.09,2.51-99.37,30.18-43.43,31.4-58.56,75.77-63.71,99.41-11.7,53.73,7,96.87,13.15,111.05,29.99,69.17,89.7,98.44,112.18,109.46,53.64,26.29,102.1,26.37,128.13,26.41h.51c74.76-.01,129.86-25.56,153.42-36.49,25.05-11.62,89.45-46.09,146.28-115,43.45-52.7,63.57-103.06,73.23-127.26,24.08-60.29,32.27-113.4,34.92-147.34,1.49-19.25,2.99-59.1-3.8-109.61ZM607.17,629.36c3.36,1.73,6.82,3.52,10.4,5.37,2.91,1.5,5.91,3.03,8.99,4.61.57.3,1.16.6,1.74.89.06.03.14.06.2.1,2.47,1.26,4.99,2.55,7.59,3.87.64.32,1.28.65,1.92.98.44.21.86.44,1.3.65,3.03,1.54,6.14,3.1,9.35,4.71.53.28,1.08.54,1.63.82,4.33,2.17,8.81,4.39,13.47,6.69-1.02-3.02-1.9-5.83-2.66-8.42-1.47-5.02-3.08-10.58-4.53-16.67-4.79-2.4-9.38-4.71-13.79-6.96-.02-.01-.05-.02-.07-.03-.29-.15-.56-.3-.85-.44-4.16-2.11-8.16-4.17-12.02-6.15-3.94-2.02-7.74-3.97-11.4-5.87-.82-.43-1.64-.85-2.44-1.26-25.29-13.05-45.53-23.5-68.7-33.52-2.74-1.19-5.54-2.37-8.37-3.55-5.88,4.36-12.38,8.69-19.64,12.87,3.26,1.28,6.44,2.55,9.55,3.83,27.32,11.18,49.39,22.56,78.05,37.35.1.04.18.09.28.14ZM641.87,625.52c-3.88,2.39-7.23,5.46-9.97,9.1.3-.27.58-.5.88-.73.01-.01,4.35-3.46,9.94-7.93-.29-.15-.56-.3-.85-.44ZM641.87,625.52c-3.88,2.39-7.23,5.46-9.97,9.1.3-.27.58-.5.88-.73.01-.01,4.35-3.46,9.94-7.93-.29-.15-.56-.3-.85-.44ZM641.87,625.52c-3.88,2.39-7.23,5.46-9.97,9.1.3-.27.58-.5.88-.73.01-.01,4.35-3.46,9.94-7.93-.29-.15-.56-.3-.85-.44ZM641.87,625.52c-3.88,2.39-7.23,5.46-9.97,9.1.3-.27.58-.5.88-.73.01-.01,4.35-3.46,9.94-7.93-.29-.15-.56-.3-.85-.44Z"/>
        <path d="M523.8,29.51c7.94,26.01,6.28,55.84-6.8,79.93-6.19,11.47-13.43,21.28-19.99,32-6.19,10.11-11.87,20.5-16.71,31.32-7.41,16.27-12.79,33.75-17.54,51.19-8.57,29.54-15.29,59.71-20.13,90.48-3.31-31.11-1.23-62.98,3.65-93.99,2.85-18.99,6.74-37.79,13.55-56.01,4.49-12.2,10.04-24.04,16.54-35.28,6.4-11.28,13.91-21.59,19.35-31.27,11.21-19.73,13.34-42.4,11.27-64.92,0,0,16.8-3.45,16.8-3.45h0Z"/>
        <path d="M310.68,430.85c-1.03,0-2.07-.26-3.02-.81-4.81-2.79-9.95-4.87-15.28-6.18-.04,0-4.29-1.04-8.71-1.44-7.73-.69-45.82-1.38-86.15-2.11-52.53-.95-112.08-2.03-132.73-3.52-6.6-.48-16.74-1.65-28.68-6.35-8.65-3.4-16.79-8.12-24.21-14.01-2.6-2.07-3.04-5.86-.97-8.46,2.07-2.6,5.86-3.04,8.46-.97,6.48,5.15,13.59,9.27,21.13,12.23,10.4,4.09,19.33,5.12,25.14,5.54,20.33,1.47,79.7,2.54,132.08,3.49,42.31.77,78.85,1.43,87.01,2.16,5.37.48,10.31,1.69,10.52,1.74,6.44,1.59,12.64,4.1,18.44,7.46,2.88,1.67,3.85,5.35,2.18,8.23-1.12,1.92-3.14,3-5.21,3Z"/>
        <path d="M62.04,368.93c2.26.66,7.19,1.74,12.54-.2,7.96-2.88,14.64-11.65,12.44-16.56-1.35-3.03-5.99-4.34-9.43-4.01-7.19.68-13.69,8.92-15.55,20.77Z"/>
        <circle cx="246.45" cy="279.91" r="40.51"/>
        <path d="M246.45,373.65c-51.69,0-93.74-42.05-93.74-93.74s42.05-93.74,93.74-93.74,93.74,42.05,93.74,93.74-42.05,93.74-93.74,93.74ZM246.45,202.65c-42.6,0-77.26,34.66-77.26,77.26s34.66,77.26,77.26,77.26,77.26-34.66,77.26-77.26-34.66-77.26-77.26-77.26Z"/>
        <path d="M875.86,636.76c-2.17-10.32-6.32-21.94-15.92-37.11-25.6-40.46-81.77-93.18-143.03-86.1-9.76,1.14-30.59,3.85-45.76,20.07-11.63,12.44-14.25,26.48-16.87,40.54-4.23,22.73-1.55,42.58,2.3,58.79h0c.05.22.11.43.15.63,1.41,5.84,2.96,11.2,4.38,16.05.75,2.58,1.64,5.4,2.66,8.42.72,2.16,1.53,4.42,2.4,6.77,1.62,4.27,3.49,8.85,5.67,13.68h0c1.88,4.17,4.01,8.5,6.41,12.99-.15.26-.3.52-.45.78-2.25,4.03-4.4,8.34-6.71,12.66-.52.41-1.04.86-1.56,1.32-6.78,5.99-11.13,13.21-13.93,20.39-4.48,11.48-5.04,22.85-5.33,28.98-.32,6.48-.1,16.42,3.04,28.3.3,1.09,1.92.88,1.9-.26-.14-7.59.92-18.17,6.1-29.44,5.99-13.07,14.77-21.04,19.66-24.9-1.93,4.97-4.91,13.61-6.62,24.69-2,13-1.91,27.26-.35,37.87,1.37,9.32,3.9,15.87,7.18,16.32.51.07,1.4.04,4.61-2.61,10.51-8.68,15.33-21.34,21.93-32.89,6.6-11.52,13.73-22.76,21.35-33.63,5.77-8.24,12.81-15.41,16.32-24.99,1.74-4.74,3.02-9.76,3.71-15.94.55-4.95.74-10.66.51-17.58-.04-1.14-.08-2.26-.15-3.39-1.26-24.37-7.06-48.03-13.02-66.79-2.9-9.11-5.84-17.06-8.31-23.36,2.44,2.91,5.1,6.3,7.85,10.18h0c5.42,7.67,11.15,17.25,16.03,28.77,8.43,19.88,11.04,37.71,11.85,49.78,3.25,4.04,7.44,8.7,12.67,13.49,4.38,4.02,9.5,8.11,15.43,12.01,14.55,9.53,27.74,13.71,34.11,15.45h.01l-.18.65c-17.71-1.39-34.58-8.37-48.88-18.86-5.83-4.27-11.24-9.13-16.11-14.42.23,9.69-.43,19.61-3.08,29.04-.79,2.78-1.73,5.52-2.89,8.19-3.16,7.33-7.99,13.57-12.47,19.51-8.78,11.89-16.62,24.59-23.95,37.44-5.96,10.68-11.21,23.38-20.64,32.87-4.93,4.74-10.35,10.16-18.21,9.3-5.93-.72-10.69-5.1-13.19-10.24-2.62-5.3-3.76-10.65-4.58-15.98-1.68,1.24-3.68,2.09-5.86,2.37-5.45.96-11.92-2.59-13.87-8.03-.97-2.7-1.48-5.55-2.08-8.35-2.26-11.17-2.41-22.67-1.23-33.98.37-3.88.98-7.78,1.84-11.66,1.18-5.3,2.85-10.53,5.08-15.53h0c2.74-6.12,6.32-11.87,10.91-16.91,1.41-1.57,2.9-3.07,4.47-4.5h.01c1.49-1.34,3.03-2.59,4.63-3.77-.45-.85-.88-1.69-1.31-2.55-2.24-4.42-4.34-8.93-6.28-13.5-3.36-7.89-6.26-15.95-8.67-24.14-.27-.88-.52-1.76-.77-2.65-.04-.15-.09-.29-.13-.44-2.37-7.94-4.41-16.15-5.88-24.53h0c-2.38-13.42-3.32-27.18-1.91-40.61,1.45-12.56,3.6-24.48,7.97-36.58,9.81-26.79,34.66-41.93,61.95-44.83,49.61-7.06,96.63,22.14,128.12,57.94,17.94,21.13,34.76,46.57,36.94,74.83Z"/>
        <path d="M595.93,525.77c-6.41,13.55-16.74,23.41-27.06,33.68-6.78,6.82-13.99,13.28-21.57,19.28-5.93,4.69-12.08,9.09-18.46,13.15-7.79,4.97-15.89,9.45-24.27,13.34-20.78,9.57-42.23,17.32-64.71,22.03-16.25,3.53-33.07,4.16-48.61,9.91-2.91,1.02-6.08,2.25-8.94,3.43-11.86,4.75-22.1,11.49-31.77,19.68-9.94,8.31-19.44,17.34-27.99,27.07-5.77,6.13-8.93,12.38-16.65,17.28-7.81,4.8-18.1,2.47-22.68-6.18-1.98-3.77-2.99-7.73-3.48-11.74-2.66,2.81-5.7,5.11-9.49,6.92-6.85,3.16-15.58.86-19.39-6.81-.95-1.79-1.33-3.25-1.74-4.9-.01-.05-.03-.12-.04-.17-.01-.06-.02-.12-.04-.17.01.03.02.05.03.1-.03-.15-.06-.29-.1-.44,0-.03-.01-.06-.01-.1-.05-.27-.1-.53-.13-.8-1.24-7.48-.4-14.67.61-22.1.3-1.99.91-5.05,1.39-7.03.5-2.07,1.03-4.87,1.71-6.84,4.61-15.81,13.4-30.5,24.47-42.56,12.49-14.06,29.7-23.83,47.15-29.22,23.8-7.63,47.44-14.22,72.02-17.99.49-.46.97-.91,1.46-1.36,5.87-5.52,11.92-10.82,18.16-15.88,7.45-6.06,15.18-11.77,23.16-17.1,12.04-8,24.51-15.01,37.54-21.05-7.16-3.97-13.84-8.83-20.1-14.13-10.14-8.5-18.94-20.05-19.81-33.68,3.8,19.52,21.04,30.25,32.89,37.63,8.95,5.57,17.35,8.64,23.5,10.37.07.02.14.05.19.06-12.49,5.8-26.31,13.21-40.75,22.69-8.95,5.89-17.13,11.89-24.58,17.87-6.63,5.31-12.69,10.61-18.18,15.73-3.11,2.91-6.05,5.76-8.81,8.54-12.11,2.02-29.28,5.47-49.37,11.64-27.51,8.43-41.27,12.64-55.53,24.28-5.35,4.36-10.16,9.39-14.45,14.78-9.93,12.41-16.74,27.07-19.6,42.61-.07.37-.13.74-.19,1.12-.07.37-.13.75-.18,1.13-.08.5-.16,1-.22,1.5-.18,1.25-.34,2.53-.47,3.79-.05.51-.11,1.03-.14,1.53-.05.62-.1,1.22-.14,1.84-.2,3.42-.22,6.91.38,10.3,0,.04.01.09.02.13.03.26.1.52.14.77.26,1.17.71,2.49,1.83,2.93.18.07.37.12.56.13.46.06.92-.01,1.38-.16.17-.04.34-.1.5-.15,3.46-1.31,6.1-4.14,8.07-7.33.11-.17.21-.34.31-.5.26-.41.5-.85.72-1.29.54-1.01,1.03-2.02,1.45-3.03,1.54-3.57,3-7.16,4.56-10.7,1.23-2.88,2.55-5.73,4-8.52.85-1.67,1.75-3.27,2.69-4.85,3.84-6.51,8.33-12.38,13.45-18.1,6.35-7.08,14.86-12.04,23.49-15.84,7.42-3.27,15.23-6.31,23.12-8.03.92-.2,2.26-.24,3.34-.51.34-.08.65-.18.91-.32-21.79,11.39-34.96,25.48-42.02,34.38-6.43,8.12-17.55,22.5-18.23,40.02-.05.94-.05,1.87-.03,2.83.01.47.04.97.06,1.45.15,2.45.72,11.98,4.95,13.24,3.79,1.14,8.62-4.93,11.51-8.43,9.42-11.41,19.2-20.97,27.48-28.23,8.35-7.35,15.16-12.4,18.47-14.73,11.54-8.08,21.89-12.09,28.44-14.58,17.74-6.75,31.7-8,40.41-9.1,33.18-4.19,59.54-14.96,71.05-19.67,9.53-3.9,18.04-8.13,25.71-12.54,7.26-4.18,13.76-8.51,19.64-12.87,13.34-9.88,23.49-19.87,32.11-28.37,10.63-10.47,20.11-21.69,22.88-37.75.18-1.01.49-2.93.62-5.71.07-1.46.1-3.12.04-5.04-.13-3.37-.53-7.43-1.45-12.14-.17-.87-.36-1.74-.55-2.6-6.66-29.25-26.64-48.68-34.78-56.4-10.31-9.79-33.08-31.36-65.56-33.24-.36-.07-.71-.16-1.07-.23,13.71-1.22,28.01,1.96,40.71,8.17,12.75,6.13,23.85,14.95,34.17,24.54,15.86,14.66,28.38,33.51,33.22,54.78,3.62,14.48,3.4,30.86-3.34,44.58Z"/>
      </g>
    </g>
  </g>
</svg>