<svg viewBox="0 0 995.16 1024" xmlns="http://www.w3.org/2000/svg" xmlns:xlink="http://www.w3.org/1999/xlink"><clipPath id="a"><path d="m406.79 543.97c-92.33-19.64-121.09-9.13-214.09-31.04-65.33-15.39-93.12-30.48-112.13-43.35-24.77-16.78-72.27-48.97-70.92-90.45.74-22.48 15.67-42.96 42.28-79.48 9.53-13.07 18.15-23.26 24.08-29.97.43-10.81 2.61-30.11 13.38-51.11 14.52-28.32 35.89-42.62 41.21-46.03 24.9-15.94 49.23-17.96 59.94-18.2 33.97-29.33 64.46-50.52 86.7-64.76 17.75-11.37 67.57-42.22 137.82-65.83 69.74-23.44 85.27-14.77 91.79-8.56 10.97 10.44 10.11 29.38 9.63 43.35-.92 26.82-11.97 46.66-18.2 56.2 15.49-2.52 36.97-5.11 62.62-5.35 74.79-.7 133.39 19.1 164.85 32.11 69.49 28.76 114.01 68.94 132.2 86.7 37.78 36.9 60.41 73.27 72.25 94.73 36.37 65.88 44.86 124.86 50.31 165.38 7.47 55.55 4.52 97.6 3.75 107.58-1.63 21.01-7.4 77.28-34.25 144.51-10.78 27-30.07 74.2-71.72 124.7-59.9 72.65-127.35 105.18-142.9 112.4-26.04 12.08-78.43 35.7-149.86 35.59-27.78-.04-73.29-.62-123.9-25.42-20.96-10.27-79-38.72-107.58-104.63-6.9-15.9-23.4-55.49-12.58-105.17 4.12-18.93 17.34-62.86 59.94-93.66 9.97-7.21 44.5-31.39 93.13-28.37 11.35.71 65.34 4.07 96.87 49.24 3.91 5.6 28.02 41.36 17.66 85.63-2 8.54-8.65 36.95-35.32 55.13-5.82 3.96-26.7 17.72-54.06 13.38-5.19-.82-37.37-5.94-47.63-32.11-6.5-16.57-4.81-43.12 10.7-49.24 11.38-4.48 28.13 2.83 39.07 18.73 3.08-1.53 9.41-5.24 13.11-12.58 6.85-13.57-1.14-27.96-2.41-30.24-9.59-17.28-32.16-23.22-48.7-21.94-29.42 2.26-45.81 27.8-49.78 33.99-15.08 23.5-12.59 47.7-11.77 54.59 4.05 34.28 27.63 54.79 34.79 61.01 28.02 24.37 60.34 26.89 82.69 28.63 59.2 4.62 103.88-19.02 118.55-27.03 17.38-9.49 56.15-31.32 83.23-78.68 26.72-46.73 26.72-91.52 25.69-109.99-10.83-4.78-29-12.88-51.32-23.29-106.39-49.61-136.38-71.99-200.77-96.2-47.16-17.73-84.67-25.87-108.38-30.91z"/></clipPath><path d="m929.55 306.51 2.55-13.55h-9.67l2.45-13h-12.2l3.45-18.27h-16l1.01-16.82-15.19 1.93 1.68-28.02-20.43 2.6 1.37-22.79-25.34 3.22-1.38-29.37-27.04 6.43-5.77-33.9-25.61 9.5-9.19-32.84-26.54 13.13-7.71-27.55-25.53 12.63-10.2-22.14-21.45 15.27-10.87-23.56-22.79 16.22-13.55-20.86-18.82 17.98-14.29-22-19.44 18.57-15.52-18.72-16.16 19.49-16.15-19.49-28.37 34.21h56.73 32.31l-.35-.42 8.07.94-.14.14 56.34 6.57-.36-.55 31.1 8.27-.16-.34 32.47 8.64-.59-1.29 29.7 13.23-.27-.96 21.06 9.38-4.17 1.55 36.68 21.17-1.08.26 37.92 28.53 24.41 22.85.2-3.28 18.57 17.38-5.82.74 15.03 14.07h-.22l15.15 18.27h-2.43l10.78 13h-3.55l10.56 12.74-.07-.01 9.36 16.22 5.11-13.76z" fill="#8fb14f"/><path d="m918.62 309.59-19.77-23.85h3.55l-10.77-13h2.42l-5.8-7.01-24.95-23.34 2.57-.32-28.42-26.6-42.25-31.8-43.53-25.13.93-.35-26.44-11.78-22.77-6.06.16.35-42.02-11.19-64.13-7.47h-105.92l43.74-52.76 16.15 19.48 16.16-19.48 16.13 19.46 20.14-19.24 14.29 22.01 18.82-17.98 14.19 21.84 23.75-16.9 10.87 23.56 21.45-15.27 10.74 23.31 26.68-13.2 7.72 27.55 26.54-13.13 9.43 33.68 26.42-9.8 5.94 34.89 28.02-6.66 1.42 30.26 26.23-3.34-1.37 22.79 20.43-2.59-1.69 28.01 15.2-1.93-1.07 17.86h17.03l-3.44 18.28h12.19l-2.45 13h9.68l-2.81 14.88 10.98 1.87-13.48 36.35z"/><path d="m671.84 678.5c-2.18-4.84-4.05-9.42-5.67-13.69-.87-2.35-1.68-4.61-2.4-6.77-1.02-3.02-1.9-5.84-2.66-8.42-.91-3.13-1.88-6.48-2.84-10.04-.34-1.25-.67-2.53-1-3.83-.18-.72-.36-1.44-.54-2.17-.04-.21-.09-.41-.15-.62-.81-3.41-1.56-6.97-2.21-10.69-2.06-1.04-4.09-2.06-6.07-3.07-.11-.07-.23-.13-.35-.19-.05-.02-.09-.04-.15-.07-.24-.13-.49-.25-.73-.37-1.98-1.01-3.92-2-5.82-2.98.41 3.48.93 6.95 1.54 10.4-.02-.01-.05-.02-.07-.03-.29-.15-.57-.3-.85-.44-4.16-2.11-8.17-4.16-12.02-6.15-3.95-2.02-7.74-3.98-11.41-5.87-.81-.42-1.63-.85-2.44-1.26-.58-.3-1.16-.6-1.73-.9-3.64 4.01-6.83 8.64-9.5 13.75-.42.8-.82 1.6-1.2 2.42-4.15 8.71-6.77 18.56-7.81 29.32-.08.88-.18 1.78-.27 2.68-.89 8.72-2.01 19.56 1.69 32.03 2.11 7.09 4.99 16.79 13.75 18.4 2.4.44 4.83.15 7.19-.79.71 4.23 2.17 8.57 4.82 12.56l.07.11c2.1 3.17 7.68 11.58 17.45 12.63.09.01.17.02.26.02.71.07 1.44.11 2.17.11 4.3-.03 7.92-1.32 11.07-3.21.48-1.57 1.03-3.17 1.65-4.76 2.8-7.18 7.15-14.39 13.93-20.39.52-.46 1.04-.9 1.56-1.32 2.31-4.31 4.45-8.63 6.71-12.65.15-.26.29-.52.44-.78-2.4-4.48-4.52-8.82-6.41-12.97zm-4.09 13.27c-.58 1.13-1.17 2.27-1.78 3.4-.19.17-.38.33-.57.5-6.16 5.45-11 12.31-14.4 20.41-2.13 1.94-3.94 3.31-5.68 4-.82.32-1.63.49-2.46.5-.3 0-.6-.02-.91-.05-3.23-.35-6.06-4.62-7.27-6.45l-.08-.11c-5.38-8.11-2.04-20.8-1.64-22.22.99-3.53-.92-7.23-4.37-8.48-.78-.28-1.58-.41-2.37-.41-2.7 0-5.25 1.57-6.4 4.16-2.24 5.06-4.77 7.77-6.18 8.74-1.15-1.85-2.39-6.03-3.04-8.21-2.91-9.81-2.03-18.35-1.18-26.6.09-.94.19-1.86.28-2.77.85-8.84 3.03-17.16 6.33-24.25.36-.81.75-1.6 1.15-2.37 1.79-3.44 3.87-6.58 6.22-9.39 1.97 1.01 3.97 2.04 6.01 3.08 2.46 1.27 4.99 2.56 7.58 3.89.35.18.71.36 1.06.54.9.46 1.81.92 2.72 1.39.05.02.09.05.14.07.13.06.27.13.4.2l.1.06c.08.04.16.08.24.12.81.42 1.64.83 2.46 1.26h.01c2.5 1.26 5.05 2.55 7.68 3.87 1.25 4.91 2.57 9.43 3.57 12.87.49 1.68 1.02 3.4 1.59 5.15.32 1 .66 2.02 1 3.04.67 1.99 1.43 4.15 2.35 6.64 1.69 4.47 3.52 8.87 5.43 13.09.03.08.06.15.09.22 1.4 3.09 2.9 6.19 4.47 9.26-.86 1.62-1.71 3.25-2.55 4.85z"/><path d="m212.02 559.29c32.18-20.1 62.91-25.51 73.66-27.09 10.37-1.53 20.42-2.2 30.06-2.2 36.53 0 67.24 9.57 87.57 17.99 3.68 1.52 7.01 3.01 9.98 4.39 3.13-2.83 6.43-5.71 9.9-8.6l-3.1-1.47c-2.21-1.05-4.43-2.07-6.66-3.05-4.04-1.78-8.12-3.45-12.22-5.01l-113.63-14.43c-1.22.16-2.44.33-3.66.51-12.26 1.81-28.57 5.43-46.52 12.66-10.2 4.1-20.92 9.37-31.74 16.13-10.54 6.58-36.25 24.77-47.46 51.49-2.78 6.63-10.16 24.23-.72 37.5 2.66 3.73 6.28 6.36 10.46 7.61 1.54.46 3.06.68 4.65.68 3.34 0 6.79-.97 10.7-3.13 2.31 9.79 8.87 18.22 16.55 20.03.71.17 2.26.54 4.33.54 4.4 0 8.74-1.65 12.87-4.92 4.82-3.82 8.71-8.42 12.14-12.47.92-1.1 1.8-2.14 2.67-3.13 5.5-6.29 12.06-13.6 19.05-20.2 7.06-6.66 14.64-12.49 22.68-17.43 5.61-3.47 11.44-6.5 17.47-9.08 10.53-4.52 20.53-8.09 30.44-10.88.02 0 .03-.01.05-.01 8.08-3.13 17.63-6.06 29.94-9.83 20.09-6.16 37.25-9.61 49.37-11.63 2.76-2.79 5.69-5.64 8.81-8.55.5-.46 1-.93 1.5-1.39-18.67 5.65-34.16 8.92-45.09 10.88-18.31 3.29-25.81 3.27-42.72 7.61-.21.05-.42.11-.63.16-9.42 2.44-21.32 6.15-36.4 12.61-16.24 6.96-30.82 16.7-43.65 28.81-7.02 6.62-13.5 13.77-19.85 21.03-4.18 4.77-8.22 10.12-13.23 14.09-2.41 1.91-4.2 2.33-5.42 2.33-.71 0-1.24-.14-1.59-.22-3.2-.73-7.42-10.45-8.14-16.81-2.43-21.47 30.98-44.93 29.92-46.14-.77-.88-22.13 7.47-34 27.33 0 0-10.98 18.38-17.77 18.4-.37 0-.72-.06-.72-.06-.19-.03-.36-.08-.5-.12-2.22-.66-3.55-2.29-4.11-3.07-5.57-7.83-.13-20.79 2.01-25.89 10.72-25.57 37.87-42.92 42.75-45.97z"/><g clip-path="url(#a)"><circle cx="555.92" cy="273.89" r="34.52"/><circle cx="659.08" cy="173.14" r="57"/><ellipse cx="691.4" cy="322.06" rx="53.19" ry="58.61"/><ellipse cx="831.1" cy="265.47" rx="60.21" ry="63.22" transform="matrix(.96297459 -.26959217 .26959217 .96297459 -40.8 233.92)"/><ellipse cx="802.22" cy="427.24" rx="41.29" ry="43.35" transform="matrix(.96297459 -.26959217 .26959217 .96297459 -85.49 232.13)"/><ellipse cx="931.52" cy="423.31" rx="51.69" ry="60.19" transform="matrix(.96297459 -.26959217 .26959217 .96297459 -79.64 266.84)"/><ellipse cx="927.51" cy="571.03" rx="31.02" ry="36.12" transform="matrix(.96297459 -.26959217 .26959217 .96297459 -119.62 271.23)"/></g><path d="m451.47 250.76c-.4 5.54-.78 12.87-2.69 29.15-4.17 35.54-7.84 66.96-18.06 97.94-7.74 23.47-16.94 51.36-40.94 77.07-39.92 42.77-93.59 50.39-117.62 53.79-28.46 4.04-56.15 1.41-84.33-3.09-30.16-4.82-60.59-10.73-88.45-23.72-.14-.06-.28-.13-.42-.19-13.59-6.36-30.11-14.11-42.33-27.06-4.28-4.53-10.29-12.09-15.05-23.7 115.83 83.82 258.76 79.33 336.79 4.39 63.04-60.55 64.03-148.19 63.58-171.19.67-6.13 1.13-11.1 1.41-14.14 2.71.25 5.41.5 8.12.75z"/><path d="m641.87 625.52c-1.74 1.07-3.36 2.27-4.88 3.62-1.87 1.63-3.58 3.47-5.09 5.48.3-.27.58-.5.88-.74.01-.01 2.11-1.68 5.27-4.2 1.38-1.1 2.97-2.36 4.67-3.72-.29-.15-.57-.3-.85-.44zm0 0c-1.74 1.07-3.36 2.27-4.88 3.62-1.87 1.63-3.58 3.47-5.09 5.48.3-.27.58-.5.88-.74.01-.01 2.11-1.68 5.27-4.2 1.38-1.1 2.97-2.36 4.67-3.72-.29-.15-.57-.3-.85-.44zm0 0c-1.74 1.07-3.36 2.27-4.88 3.62-1.87 1.63-3.58 3.47-5.09 5.48.3-.27.58-.5.88-.74.01-.01 2.11-1.68 5.27-4.2 1.38-1.1 2.97-2.36 4.67-3.72-.29-.15-.57-.3-.85-.44zm0 0c-1.74 1.07-3.36 2.27-4.88 3.62-1.87 1.63-3.58 3.47-5.09 5.48.3-.27.58-.5.88-.74.01-.01 2.11-1.68 5.27-4.2 1.38-1.1 2.97-2.36 4.67-3.72-.29-.15-.57-.3-.85-.44zm0 0c-1.74 1.07-3.36 2.27-4.88 3.62-1.87 1.63-3.58 3.47-5.09 5.48.3-.27.58-.5.88-.74.01-.01 2.11-1.68 5.27-4.2 1.38-1.1 2.97-2.36 4.67-3.72-.29-.15-.57-.3-.85-.44zm348.22-137.22c-5.03-37.38-13.44-99.95-51.43-168.76-19.65-35.6-44.53-68.22-73.96-96.96-38.04-37.17-84.81-67.85-135.24-88.71-53.21-22.03-111.53-33.39-168.62-32.85-14.97.14-30.01 1.08-44.95 2.82 6.23-13.96 9.73-28.79 10.25-43.7l.02-.74c.53-15.48 1.27-36.68-12.65-49.92-10.63-10.13-31.02-17.29-101.49 6.41-48.97 16.46-97.36 39.57-139.95 66.84-29.51 18.91-58.17 40.21-85.24 63.38-16.03.81-38.69 5.04-61.41 19.58-8.54 5.47-29.98 21.27-44.59 49.75-8.15 15.9-13.05 33.69-14.25 51.66-7.83 9.01-15.37 18.46-22.42 28.15-27.92 38.3-43.3 59.39-44.13 84.83-1.53 46.8 48.35 80.59 75.15 98.75 19.67 13.32 48.75 29.06 115.31 44.75 49.18 11.59 81.41 14.3 112.59 16.93 26.98 2.26 54.82 4.61 94.56 12.68 2.34.47 4.72.97 7.14 1.48 1.55.33 3.18.68 4.88 1.04 5.49-5.12 11.55-10.41 18.18-15.73-4.31-.98-8.33-1.87-12.04-2.66-2.48-.53-4.81-1.03-7-1.5-44.8-9.52-74.94-12.06-104.1-14.52-31.88-2.68-62-5.22-109.79-16.48-63.52-14.96-90.71-29.61-108.94-41.94-23.72-16.08-67.87-45.99-66.68-82.17.64-19.51 14.77-38.91 40.43-74.11 7.38-10.12 15.29-19.96 23.52-29.27l2.28-2.57.13-3.42c.66-16.38 4.92-32.66 12.33-47.11 12.46-24.31 30.61-37.68 37.83-42.31 20.66-13.23 41.3-16.37 54.97-16.68l3.46-.08 2.61-2.26c27.13-23.42 55.93-44.93 85.61-63.94 41.28-26.43 88.21-48.84 135.69-64.82 44.48-14.95 73.63-18.75 82.08-10.71 7.64 7.28 7.08 23.48 6.67 35.31l-.02.74c-.61 17.81-6.36 35.52-16.64 51.25l-11.93 18.28 21.55-3.5c20.16-3.28 40.74-5.03 61.16-5.22 54.54-.51 110.23 10.34 161.07 31.38 48.18 19.93 92.85 49.22 129.15 84.69 28.07 27.42 51.8 58.54 70.55 92.5 36.24 65.63 44.04 123.63 49.2 162.01 6.8 50.57 4.85 90.66 3.69 105.54-2.53 32.61-10.41 83.65-33.59 141.68-10.02 25.09-28.67 71.78-70.21 122.16-54.32 65.86-115.67 98.71-139.52 109.77-22.41 10.4-74.8 34.71-145.32 34.71-.16 0-.32 0-.48-.01-24.47-.03-70.03-.11-119.68-24.43-20.73-10.17-75.81-37.16-102.97-99.82-6.12-14.12-22.38-51.62-12.01-99.29 4.57-20.96 17.94-60.25 56.18-87.9 29.83-21.56 58.49-26.79 79.28-26.79 2.67 0 5.21.08 7.6.23 39.15 2.43 70.96 18.47 89.58 45.13 6.04 8.68 25.09 39.9 16.18 77.93-1.93 8.24-7.8 33.31-31.37 49.36-18.58 12.66-40.74 15.72-60.81 8.4-10.26-3.74-17.85-9.07-22.55-15.8-5.83-8.38-8.15-19.28-6.37-29.93.69-4.17 3.13-13.87 10.85-14.02 6.6-.12 14.71 4.12 20.72 10.79 3.28 3.66 7.79 5.78 12.69 5.99 4.87.22 9.52-1.51 13.08-4.84 11.37-10.63 14.36-28.05 7.61-44.36-5.24-12.68-18.29-23.99-33.23-28.84-8.24-2.67-17.9-3.75-27.22-3.03-32.78 2.52-55.18 29.8-64.41 52.38-5.84 14.3-7.9 30.53-5.97 46.93 2.98 25.2 15.77 47.8 38.03 67.16 30.43 26.45 65.23 29.17 88.27 30.97 41.98 3.27 83.67-6.21 123.92-28.18 15.86-8.67 57.99-31.66 86.97-82.35 24.17-42.28 28.23-83.65 27.1-111.96-.04-1.13-.1-2.25-.16-3.34l-.33-5.9-5.4-2.38c-7.18-3.17-14.42-6.4-21.67-9.68.07 1.12.11 2.25.15 3.39.24 6.91.05 12.62-.51 17.57 2.93 1.32 5.85 2.62 8.76 3.91.08 3.5.08 7.19-.03 11.06-.78 24.45-6.38 55.84-24.64 87.76-26.28 45.95-64.93 67.06-79.47 75.01-36.92 20.15-75 28.86-113.19 25.87-21.73-1.69-51.5-4.01-77.12-26.3-6.91-6-27.94-24.29-31.54-54.86-1.56-13.18.05-26.1 4.66-37.39 7.72-18.89 25.57-38.73 48.06-40.46 6.77-.52 13.98.26 19.79 2.14 9.66 3.14 18.24 10.32 21.38 17.89 2.64 6.39 3.57 15.81-2.11 22.04-9.76-10.42-22.62-16.48-34.56-16.25-15.14.28-26.45 11.82-29.5 30.11-2.59 15.57.9 31.64 9.58 44.11 7.01 10.05 17.69 17.75 31.75 22.89 25.96 9.47 54.5 5.63 78.27-10.58 19.75-13.45 32.97-33.94 39.28-60.89 10.72-45.8-11.94-83.03-19.14-93.34-22.05-31.59-59.05-50.53-104.18-53.34-24.21-1.5-61.09 2.5-99.37 30.18-43.43 31.4-58.57 75.77-63.71 99.41-11.7 53.73 7 96.88 13.15 111.05 29.99 69.17 89.7 98.44 112.17 109.46 53.65 26.29 102.11 26.36 128.13 26.41h.51c74.76-.01 129.86-25.56 153.42-36.5 25.05-11.61 89.45-46.08 146.28-115 43.46-52.7 63.57-103.06 73.23-127.26 24.08-60.28 32.28-113.4 34.92-147.34 1.49-19.24 2.99-59.09-3.8-109.6zm-328.98 161.32c-.91-3.13-1.88-6.48-2.84-10.04-.34-1.25-.67-2.53-1-3.83-.18-.72-.36-1.44-.54-2.17-.04-.21-.09-.41-.15-.62-4.79-2.41-9.38-4.72-13.79-6.97-.02-.01-.05-.02-.07-.03-.29-.15-.57-.3-.85-.44-4.16-2.11-8.17-4.16-12.02-6.15-3.95-2.02-7.74-3.98-11.41-5.87-.81-.42-1.63-.85-2.44-1.26-.58-.3-1.16-.6-1.73-.9-24.49-12.63-44.33-22.83-66.97-32.62-2.74-1.19-5.54-2.37-8.38-3.55-5.87 4.36-12.38 8.69-19.64 12.87 3.27 1.27 6.44 2.55 9.56 3.83 26.26 10.73 47.66 21.67 74.73 35.64 1.1.56 2.2 1.13 3.32 1.71.1.04.18.08.28.14 2.88 1.48 5.83 3 8.86 4.57.51.26 1.02.52 1.54.79 2.91 1.5 5.91 3.03 8.99 4.62.58.29 1.16.59 1.75.89.06.03.13.06.2.09 2.46 1.27 4.99 2.55 7.59 3.87.63.32 1.27.65 1.92.98.44.21.86.44 1.3.65 3.02 1.54 6.14 3.1 9.35 4.71.53.27 1.08.54 1.62.81 2.18 1.09 4.41 2.2 6.67 3.33 2.23 1.1 4.5 2.23 6.81 3.37-1.02-3.02-1.9-5.84-2.66-8.42zm-19.24-24.1c-1.74 1.07-3.36 2.27-4.88 3.62-1.87 1.63-3.58 3.47-5.09 5.48.3-.27.58-.5.88-.74.01-.01 2.11-1.68 5.27-4.2 1.38-1.1 2.97-2.36 4.67-3.72-.29-.15-.57-.3-.85-.44zm0 0c-1.74 1.07-3.36 2.27-4.88 3.62-1.87 1.63-3.58 3.47-5.09 5.48.3-.27.58-.5.88-.74.01-.01 2.11-1.68 5.27-4.2 1.38-1.1 2.97-2.36 4.67-3.72-.29-.15-.57-.3-.85-.44zm0 0c-1.74 1.07-3.36 2.27-4.88 3.62-1.87 1.63-3.58 3.47-5.09 5.48.3-.27.58-.5.88-.74.01-.01 2.11-1.68 5.27-4.2 1.38-1.1 2.97-2.36 4.67-3.72-.29-.15-.57-.3-.85-.44zm0 0c-1.74 1.07-3.36 2.27-4.88 3.62-1.87 1.63-3.58 3.47-5.09 5.48.3-.27.58-.5.88-.74.01-.01 2.11-1.68 5.27-4.2 1.38-1.1 2.97-2.36 4.67-3.72-.29-.15-.57-.3-.85-.44z"/><path d="m523.8 29.51c7.94 26.01 6.28 55.84-6.8 79.93-6.19 11.47-13.43 21.28-19.99 32-6.19 10.11-11.87 20.5-16.71 31.32-7.41 16.27-12.79 33.75-17.54 51.19-8.57 29.54-15.29 59.71-20.13 90.48-3.31-31.11-1.23-62.98 3.65-93.99 2.85-18.99 6.74-37.79 13.55-56.01 4.49-12.2 10.04-24.04 16.54-35.28 6.4-11.28 13.91-21.59 19.35-31.27 11.21-19.73 13.34-42.4 11.27-64.92 0 0 16.8-3.45 16.8-3.45z"/><path d="m310.69 430.85c-1.03 0-2.07-.26-3.02-.81-4.81-2.79-9.95-4.87-15.28-6.18-.04 0-4.29-1.04-8.71-1.44-7.73-.69-45.82-1.38-86.15-2.11-52.53-.95-112.08-2.03-132.73-3.52-6.6-.48-16.74-1.65-28.68-6.35-8.65-3.4-16.79-8.12-24.21-14.01-2.6-2.07-3.04-5.86-.97-8.46s5.86-3.04 8.46-.97c6.48 5.15 13.59 9.27 21.13 12.23 10.4 4.09 19.33 5.12 25.14 5.54 20.33 1.47 79.7 2.54 132.08 3.49 42.31.77 78.85 1.43 87.01 2.16 5.37.48 10.31 1.69 10.52 1.74 6.44 1.59 12.64 4.1 18.44 7.46 2.88 1.67 3.85 5.35 2.18 8.23-1.12 1.92-3.14 3-5.21 3z"/><path d="m62.04 368.93c2.26.66 7.19 1.74 12.54-.2 7.96-2.88 14.64-11.65 12.44-16.56-1.35-3.03-5.99-4.34-9.43-4.01-7.19.68-13.69 8.92-15.55 20.77z"/><circle cx="246.46" cy="279.92" r="40.51"/><path d="m246.52 373.65c-51.69 0-93.74-42.05-93.74-93.74s42.05-93.74 93.74-93.74 93.74 42.05 93.74 93.74-42.05 93.74-93.74 93.74zm0-171c-42.6 0-77.26 34.66-77.26 77.26s34.66 77.26 77.26 77.26 77.26-34.66 77.26-77.26-34.66-77.26-77.26-77.26z"/><path d="m875.86 636.75c-2.17-10.32-6.32-21.94-15.92-37.11-25.6-40.45-81.77-93.17-143.03-86.09-9.75 1.13-30.59 3.84-45.76 20.07-11.62 12.44-14.25 26.48-16.86 40.54-3.34 17.96-2.37 34.12.08 48.11.65 3.72 1.4 7.28 2.21 10.68.06.22.11.42.15.63.18.73.36 1.45.54 2.17.33 1.3.66 2.58 1 3.83.96 3.56 1.93 6.91 2.84 10.04.76 2.58 1.64 5.4 2.66 8.42.72 2.16 1.53 4.42 2.4 6.77 1.62 4.27 3.49 8.85 5.67 13.68 1.89 4.16 4.01 8.5 6.41 12.98-.15.26-.29.52-.44.78-2.26 4.02-4.4 8.34-6.71 12.65-.52.42-1.04.86-1.56 1.32-6.78 6-11.13 13.21-13.93 20.39-.62 1.59-1.17 3.19-1.65 4.76-2.99 9.78-3.43 18.94-3.69 24.22-.32 6.49-.09 16.42 3.04 28.3.3 1.1 1.92.89 1.9-.25-.13-7.59.93-18.17 6.1-29.44 6-13.07 14.77-21.04 19.66-24.9-1.93 4.98-4.91 13.62-6.62 24.69-2 13-1.91 27.26-.35 37.87 1.37 9.32 3.9 15.87 7.19 16.33.51.07 1.4.04 4.61-2.62 10.51-8.68 15.33-21.34 21.93-32.89 6.6-11.52 13.73-22.76 21.35-33.63 5.77-8.24 12.81-15.41 16.32-25 1.75-4.74 3.02-9.75 3.71-15.94.56-4.95.75-10.66.51-17.57-.04-1.14-.08-2.27-.15-3.39-1.26-24.37-7.05-48.04-13.01-66.79-2.9-9.11-5.85-17.06-8.31-23.36 2.44 2.91 5.1 6.3 7.85 10.18 5.42 7.67 11.15 17.25 16.02 28.77 8.43 19.88 11.05 37.71 11.85 49.77 3.26 4.04 7.44 8.71 12.67 13.49 4.38 4.01 9.5 8.11 15.43 12.01 14.55 9.53 27.74 13.7 34.11 15.45l-.18.65c-17.71-1.4-34.58-8.38-48.88-18.87-5.83-4.27-11.24-9.13-16.11-14.42.23 9.69-.43 19.61-3.08 29.05-.79 2.78-1.73 5.51-2.89 8.19-3.16 7.33-7.99 13.57-12.47 19.51-8.78 11.89-16.62 24.59-23.95 37.44-5.96 10.68-11.21 23.38-20.64 32.87-4.93 4.74-10.35 10.16-18.21 9.3-5.93-.73-10.69-5.1-13.19-10.25-2.63-5.3-3.76-10.65-4.58-15.98-1.68 1.24-3.68 2.09-5.86 2.37-5.45.96-11.92-2.59-13.86-8.04-.97-2.69-1.48-5.54-2.09-8.35-2.26-11.17-2.41-22.66-1.23-33.98.37-3.88.98-7.78 1.84-11.66 0-.01 0-.02.01-.03 1.09-4.9 2.6-9.74 4.6-14.39.14-.37.31-.74.47-1.11 2.74-6.12 6.32-11.87 10.91-16.9 1.41-1.58 2.9-3.07 4.48-4.5h.01c1.48-1.34 3.02-2.59 4.63-3.77-.45-.85-.88-1.69-1.31-2.55-2.24-4.42-4.33-8.93-6.28-13.5-3.36-7.88-6.26-15.95-8.67-24.14-.27-.88-.52-1.77-.77-2.65-.04-.15-.08-.29-.12-.43-1.73-5.79-3.28-11.72-4.55-17.75h-.01c-.48-2.25-.92-4.51-1.32-6.78-.61-3.46-1.13-6.93-1.54-10.41-1.16-10.06-1.41-20.22-.37-30.2 1.44-12.56 3.6-24.48 7.97-36.57 9.81-26.79 34.66-41.94 61.95-44.84 49.61-7.06 96.63 22.14 128.12 57.94 17.94 21.13 34.76 46.57 36.94 74.83z"/><path d="m595.93 525.77c-6.41 13.55-16.74 23.41-27.06 33.67-6.78 6.83-13.99 13.29-21.57 19.28-5.93 4.69-12.09 9.09-18.46 13.15-7.79 4.97-15.89 9.44-24.27 13.33-20.78 9.58-42.23 17.32-64.71 22.03-16.25 3.53-33.07 4.16-48.61 9.92-2.91 1.02-6.08 2.25-8.94 3.43-11.85 4.75-22.1 11.49-31.77 19.68-9.94 8.31-19.44 17.34-27.99 27.07-5.77 6.13-8.93 12.38-16.65 17.28-7.81 4.8-18.1 2.46-22.68-6.19-1.98-3.77-2.99-7.72-3.48-11.74-2.65 2.8-5.69 5.11-9.49 6.92-6.85 3.15-15.57.86-19.39-6.82-.95-1.78-1.33-3.25-1.74-4.89-.01-.06-.03-.12-.05-.17 0-.07-.02-.12-.04-.17 0 .02.01.03.02.04-.03-.13-.05-.26-.08-.38 0-.04-.01-.07-.01-.1-.06-.27-.1-.53-.13-.8-1.24-7.48-.4-14.66.61-22.1.29-1.99.91-5.05 1.39-7.04.5-2.07 1.03-4.86 1.71-6.84 4.12-14.14 11.59-27.38 21.04-38.64 1.11-1.34 2.26-2.64 3.43-3.92 12.3-13.84 29.18-23.53 46.34-28.96.27-.09.54-.18.81-.26 23.81-7.63 47.44-14.22 72.02-18 .49-.45.97-.91 1.46-1.36 1.87-1.76 3.76-3.49 5.67-5.2 3.31-2.98 6.69-5.89 10.12-8.73.79-.65 1.58-1.3 2.37-1.94 7.45-6.06 15.18-11.78 23.16-17.1 12.04-8 24.5-15.01 37.54-21.05-7.16-3.98-13.84-8.83-20.09-14.14-10.14-8.5-18.94-20.05-19.81-33.67 3.8 19.52 21.04 30.25 32.89 37.63 8.95 5.56 17.35 8.64 23.49 10.37.08.02.14.05.19.06-12.48 5.8-26.31 13.21-40.75 22.69-8.95 5.89-17.13 11.89-24.58 17.87-1.58 1.27-3.13 2.54-4.65 3.8-3.47 2.89-6.77 5.77-9.9 8.6-.72.65-1.42 1.29-2.12 1.94h-.01c-.5.46-1 .93-1.5 1.39-3.12 2.91-6.05 5.76-8.81 8.55-12.12 2.02-29.28 5.47-49.37 11.63-12.31 3.77-21.86 6.7-29.94 9.83-.02 0-.03.01-.05.01-9.96 3.86-17.68 8.02-25.54 14.45-5.35 4.35-10.16 9.39-14.45 14.78-9.93 12.41-16.74 27.06-19.6 42.61-.07.37-.13.75-.19 1.12-.07.37-.13.75-.18 1.12-.09.5-.16 1-.22 1.5-.18 1.26-.34 2.53-.47 3.8-.05.51-.11 1.03-.14 1.53-.05.61-.09 1.22-.14 1.83-.2 3.43-.22 6.91.39 10.3 0 .04.01.09.02.13.03.25.09.52.13.76.26 1.17.72 2.49 1.83 2.94.18.07.37.11.57.13.45.06.92-.02 1.38-.16.17-.05.34-.1.5-.15 3.46-1.31 6.1-4.15 8.06-7.34.11-.17.21-.34.31-.49.26-.42.5-.85.72-1.29.55-1.01 1.03-2.02 1.45-3.03 1.54-3.57 3-7.16 4.56-10.7 1.23-2.88 2.55-5.73 3.99-8.52.85-1.67 1.76-3.28 2.69-4.85 3.84-6.51 8.33-12.38 13.46-18.1 6.35-7.07 14.85-12.04 23.48-15.84 7.42-3.27 15.23-6.31 23.12-8.04.93-.2 2.27-.24 3.34-.51.34-.08.65-.18.92-.31-21.79 11.39-34.97 25.48-42.02 34.37-6.43 8.12-17.55 22.5-18.23 40.02-.05.94-.05 1.87-.03 2.83.01.47.04.97.06 1.45.15 2.45.73 11.97 4.96 13.24 3.79 1.13 8.61-4.93 11.5-8.43 9.42-11.41 19.21-20.97 27.49-28.22 8.35-7.36 15.16-12.41 18.47-14.73 11.54-8.08 21.89-12.1 28.43-14.58 17.74-6.75 31.7-8.01 40.42-9.1 33.17-4.19 59.54-14.96 71.05-19.67 9.53-3.9 18.04-8.13 25.7-12.54 7.26-4.18 13.77-8.51 19.64-12.87 13.34-9.88 23.49-19.87 32.12-28.37 10.62-10.47 20.1-21.69 22.88-37.75.18-1.01.49-2.93.61-5.71.08-1.45.1-3.12.05-5.03-.13-3.37-.53-7.43-1.45-12.14-.17-.87-.36-1.74-.55-2.6-6.66-29.25-26.64-48.69-34.78-56.4-10.31-9.79-33.08-31.36-65.56-33.24-.36-.08-.71-.16-1.07-.23 13.7-1.23 28.01 1.95 40.71 8.17 12.75 6.13 23.84 14.95 34.16 24.53 15.86 14.67 28.39 33.51 33.22 54.79 3.63 14.48 3.4 30.86-3.33 44.58z"/></svg>